<?xml version="1.0" standalone="no"?>
<!DOCTYPE svg PUBLIC "-//W3C//DTD SVG 20010904//EN"
 "http://www.w3.org/TR/2001/REC-SVG-20010904/DTD/svg10.dtd">
<svg version="1.0" xmlns="http://www.w3.org/2000/svg"
 width="200.000000pt" height="200.000000pt" viewBox="0 0 200.000000 200.000000"
 preserveAspectRatio="xMidYMid meet">
<metadata>
Created by potrace 1.11, written by Peter Selinger 2001-2013
</metadata>
<g transform="translate(0.000000,200.000000) scale(0.100000,-0.100000)"
fill="#000000" stroke="none">
<path d="M1300 1220 c0 -23 -47 -32 -164 -29 -323 6 -379 4 -413 -15 -36 -22
-73 -89 -80 -147 -7 -51 16 -54 45 -5 14 24 29 35 54 40 42 8 158 6 159 -3 1
-3 3 -125 4 -271 2 -276 6 -303 48 -348 35 -38 75 -54 136 -54 67 0 97 10 133
47 34 34 49 79 51 156 2 55 0 62 -18 65 -18 3 -20 -3 -22 -55 -3 -108 -53
-170 -122 -152 -50 14 -55 42 -56 334 0 148 3 271 7 273 4 3 50 6 102 7 78 2
98 5 116 22 25 22 46 67 55 114 4 26 2 31 -15 31 -11 0 -20 -4 -20 -10z"/>
</g>
</svg>
